# xmcd
#
# Track frame offsets: 
#        150
#        16411
#        35468
#        55411
#        79612
#        100576
#        116986
#        135605
#        157864
#        174700
#        198000
#
# Disc length: 2892 seconds
#
# Revision: 0
# Processed by: cddbd v1.5.2PL0 Copyright (c) Steve Scherf et al.
# Submitted via: ExactAudioCopy v0.95b3
#
DISCID=850b4a0b
DTITLE=Paul Ubana Jones - At Al's
DYEAR=2009
DGENRE=Blues
TTITLE0=Sunday Morning
TTITLE1=Who Are We
TTITLE2=Rock Me Baby
TTITLE3=A Bad Case of The Blues
TTITLE4=I Need A Storm
TTITLE5=Downloading My Dreams
TTITLE6=Lady Day and John Coltrane
TTITLE7=My Baby Love
TTITLE8=My Lucky Star
TTITLE9=The Age of Disfigurement
TTITLE10=Fly With Me, Part1 and Part2
EXTD=
EXTT0=
EXTT1=
EXTT2=
EXTT3=
EXTT4=
EXTT5=
EXTT6=
EXTT7=
EXTT8=
EXTT9=
EXTT10=
PLAYORDER=
